# xmcd CD database file
# Copyright (C) 1993-1998 Ti Kan
#
# Track frame offsets:
#	150
#	15790
#	28770
#	42185
#	55320
#	70401
#	98292
#	120874
#	138795
#	151612
#	164743
#	180684
#	195462
#	208391
#	221636
#
# Disc length: 2962 seconds
#
# Revision: 1
# Processed by: cddbd v1.4b41PL1 Copyright (c) Steve Scherf et al.
# Submitted via: CDValet v3.31 - Copyright (c) 1997 Greg Leichner
#
DISCID=c20b900f
DTITLE=The Twisters - Fulla Hot Air
DYEAR=1900
DGENRE=
TTITLE0=Hurc's Hop
TTITLE1=Don't Start Cryin' Now
TTITLE2=Uh-Uh Baby
TTITLE3=Long Highway
TTITLE4=Birth of The Boogie
TTITLE5=Need Your Love So Bad
TTITLE6=JR'S Swing Line
TTITLE7=9 Times Out Of 10
TTITLE8=Pure and Simple Blues
TTITLE9=Fine Sweet Thing
TTITLE10=One Monkey Don't Stop No Show
TTITLE11=I'm Mad With You
TTITLE12=She Took Back Her Heart
TTITLE13=Fulla Hot Air
TTITLE14=End
EXTD=For Twister Info (604) 879-0940\ne-mail junior@smartt.com
EXTT0=
EXTT1=
EXTT2=
EXTT3=
EXTT4=
EXTT5=
EXTT6=
EXTT7=
EXTT8=
EXTT9=
EXTT10=
EXTT11=
EXTT12=
EXTT13=
EXTT14=
PLAYORDER=
